<?xml version="1.0" standalone="no"?>
<!DOCTYPE svg PUBLIC "-//W3C//DTD SVG 20010904//EN"
 "http://www.w3.org/TR/2001/REC-SVG-20010904/DTD/svg10.dtd">
<svg version="1.0" xmlns="http://www.w3.org/2000/svg"
 width="512.000000pt" height="512.000000pt" viewBox="0 0 512.000000 512.000000"
 preserveAspectRatio="xMidYMid meet">
<metadata>
Created by potrace 1.11, written by Peter Selinger 2001-2013
</metadata>
<g transform="translate(0.000000,512.000000) scale(0.100000,-0.100000)"
fill="#000000" stroke="none">
<path d="M2320 4811 c-14 -4 -26 -14 -28 -23 -5 -27 150 -652 235 -950 6 -20
20 -22 56 -9 31 12 35 -14 -72 379 -80 290 -126 480 -137 566 -7 47 -10 49
-54 37z"/>
<path d="M2086 4702 c-33 -72 -53 -100 -115 -162 -69 -68 -92 -83 -261 -169
-585 -297 -868 -534 -1030 -865 -76 -154 -101 -253 -107 -421 -4 -106 -2 -159
10 -217 40 -192 137 -361 302 -523 119 -117 235 -193 363 -238 75 -26 105 -31
217 -35 262 -9 448 52 857 279 320 178 549 281 717 321 72 17 107 19 216 15
198 -7 304 -49 435 -173 85 -81 141 -166 175 -269 24 -71 27 -91 23 -185 -8
-206 -86 -360 -282 -556 -187 -186 -377 -302 -591 -360 -137 -37 -326 -39
-459 -6 -155 39 -313 120 -438 223 -40 34 -49 38 -72 29 -26 -10 -26 -10 -10
-47 111 -263 197 -568 249 -888 15 -88 32 -163 38 -167 19 -12 37 -9 37 6 0
34 95 200 145 255 82 88 181 151 479 303 428 220 633 351 821 530 210 198 346
455 386 728 16 111 6 333 -19 425 -45 167 -137 327 -263 460 -276 290 -614
377 -1034 265 -161 -42 -246 -80 -648 -283 -199 -101 -398 -195 -442 -210
-251 -81 -445 -73 -596 24 -68 43 -164 149 -200 221 -166 329 58 776 471 941
96 38 206 57 327 57 177 0 260 -29 497 -169 65 -39 122 -71 127 -71 16 0 -12
101 -121 435 -80 243 -117 394 -127 518 -8 96 -27 91 -77 -21z"/>
<path d="M1683 3911 c-86 -24 -195 -77 -278 -136 -84 -59 -194 -179 -232 -251
-136 -255 -47 -547 205 -671 70 -35 83 -38 180 -42 120 -4 272 21 272 45 0 11
-25 14 -122 14 -197 0 -326 44 -409 138 -156 178 -135 434 51 621 103 102 209
162 363 203 68 18 109 22 239 23 181 0 204 10 105 45 -90 32 -275 37 -374 11z"/>
<path d="M3342 3425 c2 -3 44 -12 93 -20 559 -98 953 -604 921 -1185 -19 -351
-153 -653 -401 -905 -192 -195 -344 -298 -745 -507 -162 -85 -322 -172 -355
-193 -97 -61 -207 -150 -249 -200 -45 -55 -106 -153 -106 -172 0 -13 66 -51
73 -42 2 2 15 25 30 50 43 76 112 153 194 220 111 89 145 109 463 274 290 150
395 212 530 315 225 171 402 375 507 583 47 94 108 282 129 397 24 133 25 377
0 490 -50 238 -148 419 -325 603 -190 198 -416 297 -674 297 -50 0 -88 -2 -85
-5z"/>
<path d="M3240 2599 c-131 -14 -304 -89 -854 -367 -224 -114 -409 -201 -467
-220 -124 -41 -219 -55 -284 -43 -64 12 -161 -5 -144 -25 6 -7 36 -23 66 -34
192 -72 342 -25 1038 325 258 130 481 235 540 255 96 33 106 34 248 35 125 0
147 2 145 15 -4 18 -113 56 -178 62 -25 2 -74 1 -110 -3z"/>
<path d="M2321 1461 c-24 -33 -24 -33 61 -89 240 -162 514 -203 777 -116 89
29 106 38 98 52 -4 6 -34 3 -80 -8 -260 -62 -518 -12 -758 146 -37 24 -69 44
-72 44 -3 0 -15 -13 -26 -29z"/>
</g>
</svg>
